<svg width="555" height="652" viewBox="0 0 555 652" fill="none" xmlns="http://www.w3.org/2000/svg">
<g opacity="0.3">
<mask id="path-1-inside-1_181_646" fill="white">
<path d="M554.313 557.401C508.86 602.248 451.211 632.723 388.554 645.027C325.897 657.332 261.005 650.92 201.967 626.592C142.93 602.264 92.3594 561.096 56.5615 508.221C20.7635 455.346 1.32177 393.103 0.660221 329.253C-0.00132583 265.403 18.1466 202.77 52.8413 149.165C87.536 95.5592 137.242 53.3521 195.763 27.8061C254.284 2.26015 319.03 -5.49466 381.928 5.50859C444.826 16.5119 503.094 45.7864 549.467 89.6823L547.52 91.7388C501.551 48.2252 443.791 19.2055 381.44 8.29799C319.089 -2.60949 254.907 5.07783 196.896 30.4015C138.885 55.725 89.6112 97.5645 55.2186 150.703C20.826 203.842 2.83607 265.929 3.49186 329.223C4.14764 392.517 23.4201 454.218 58.9064 506.633C94.3926 559.048 144.523 599.858 203.046 623.974C261.569 648.09 325.897 654.446 388.008 642.249C450.12 630.052 507.267 599.842 552.324 555.385L554.313 557.401Z"/>
</mask>
<path d="M554.313 557.401C508.86 602.248 451.211 632.723 388.554 645.027C325.897 657.332 261.005 650.92 201.967 626.592C142.93 602.264 92.3594 561.096 56.5615 508.221C20.7635 455.346 1.32177 393.103 0.660221 329.253C-0.00132583 265.403 18.1466 202.77 52.8413 149.165C87.536 95.5592 137.242 53.3521 195.763 27.8061C254.284 2.26015 319.03 -5.49466 381.928 5.50859C444.826 16.5119 503.094 45.7864 549.467 89.6823L547.52 91.7388C501.551 48.2252 443.791 19.2055 381.44 8.29799C319.089 -2.60949 254.907 5.07783 196.896 30.4015C138.885 55.725 89.6112 97.5645 55.2186 150.703C20.826 203.842 2.83607 265.929 3.49186 329.223C4.14764 392.517 23.4201 454.218 58.9064 506.633C94.3926 559.048 144.523 599.858 203.046 623.974C261.569 648.09 325.897 654.446 388.008 642.249C450.12 630.052 507.267 599.842 552.324 555.385L554.313 557.401Z" stroke="white" stroke-width="6" mask="url(#path-1-inside-1_181_646)"/>
</g>
</svg>
