<svg width="98" height="100" viewBox="0 0 98 100" fill="none" xmlns="http://www.w3.org/2000/svg">
<path fill-rule="evenodd" clip-rule="evenodd" d="M34.5542 1.28229L35.4445 36.2858L1.1272 29.3307L29.0492 50.4589L2.21488 72.9529L36.1426 64.2958L36.9983 99.3004L51.3835 67.377L79.2847 88.5332L63.2949 57.3823L97.2317 48.7591L62.9075 41.8381L77.3248 9.92875L50.5131 32.4491L34.5542 1.28229Z" stroke="white" stroke-width="1.00716" stroke-miterlimit="22.9256" stroke-linecap="round" stroke-linejoin="round"/>
<path fill-rule="evenodd" clip-rule="evenodd" d="M78.0983 34.011L59.398 49.6673L78.8378 64.3957L54.9377 59.5368L55.5431 83.9185L44.4406 62.2031L25.7557 77.8782L35.811 55.6585L11.906 50.8234L35.5475 44.8312L24.4231 23.1268L43.8482 37.8744L53.8815 15.6445L54.4626 40.0266L78.0983 34.011Z" stroke="white" stroke-width="1.00716" stroke-miterlimit="22.9256" stroke-linecap="round" stroke-linejoin="round"/>
<path fill-rule="evenodd" clip-rule="evenodd" d="M62.8841 41.954L53.3784 49.9125L63.26 57.3992L51.1111 54.9293L51.4189 67.323L45.7752 56.2847L36.2774 64.2526L41.3887 52.9579L29.2373 50.5001L41.2547 47.4542L35.5999 36.4214L45.4741 43.9179L50.5742 32.618L50.8696 45.0119L62.8841 41.954Z" stroke="white" stroke-width="1.00716" stroke-miterlimit="22.9256" stroke-linecap="round" stroke-linejoin="round"/>
<path fill-rule="evenodd" clip-rule="evenodd" d="M2.06559 72.896L79.3891 88.5746L77.4687 9.70057L1 29.1244L36.9521 99.3547L97.4212 48.6755L34.5575 1L2.06559 72.896Z" stroke="white" stroke-width="1.0069" stroke-miterlimit="22.9256" stroke-linecap="round" stroke-linejoin="round"/>
</svg>
