<svg width="552" height="652" viewBox="0 0 552 652" fill="none" xmlns="http://www.w3.org/2000/svg">
<g opacity="0.3">
<mask id="path-1-inside-1_181_646" fill="white">
<path d="M551.519 557.401C506.066 602.248 448.417 632.723 385.76 645.027C323.103 657.332 258.211 650.92 199.173 626.592C140.136 602.264 89.5657 561.096 53.7678 508.221C17.9698 455.346 -1.47193 393.103 -2.13348 329.253C-2.79503 265.403 15.3529 202.77 50.0476 149.165C84.7423 95.5592 134.449 53.3521 192.969 27.8061C251.49 2.26015 316.236 -5.49466 379.134 5.50859C442.033 16.5119 500.301 45.7864 546.673 89.6823L544.727 91.7388C498.758 48.2252 440.997 19.2055 378.646 8.29799C316.296 -2.60949 252.114 5.07783 194.102 30.4015C136.091 55.725 86.8175 97.5645 52.4249 150.703C18.0323 203.842 0.0423704 265.929 0.69816 329.223C1.35394 392.517 20.6264 454.218 56.1127 506.633C91.5989 559.048 141.729 599.858 200.252 623.974C258.776 648.09 323.103 654.446 385.215 642.249C447.326 630.052 504.473 599.842 549.531 555.385L551.519 557.401Z"/>
</mask>
<path d="M551.519 557.401C506.066 602.248 448.417 632.723 385.76 645.027C323.103 657.332 258.211 650.92 199.173 626.592C140.136 602.264 89.5657 561.096 53.7678 508.221C17.9698 455.346 -1.47193 393.103 -2.13348 329.253C-2.79503 265.403 15.3529 202.77 50.0476 149.165C84.7423 95.5592 134.449 53.3521 192.969 27.8061C251.49 2.26015 316.236 -5.49466 379.134 5.50859C442.033 16.5119 500.301 45.7864 546.673 89.6823L544.727 91.7388C498.758 48.2252 440.997 19.2055 378.646 8.29799C316.296 -2.60949 252.114 5.07783 194.102 30.4015C136.091 55.725 86.8175 97.5645 52.4249 150.703C18.0323 203.842 0.0423704 265.929 0.69816 329.223C1.35394 392.517 20.6264 454.218 56.1127 506.633C91.5989 559.048 141.729 599.858 200.252 623.974C258.776 648.09 323.103 654.446 385.215 642.249C447.326 630.052 504.473 599.842 549.531 555.385L551.519 557.401Z" stroke="white" stroke-width="6" mask="url(#path-1-inside-1_181_646)"/>
</g>
</svg>
