<svg width="228" height="100" viewBox="0 0 228 100" fill="none" xmlns="http://www.w3.org/2000/svg">
<path d="M111.689 35.8159C110.752 35.8159 109.929 35.6092 109.217 35.193C108.505 34.7766 107.955 34.1853 107.564 33.4226C107.173 32.6597 106.976 31.7731 106.976 30.7686V27.0533C106.976 26.0488 107.173 25.1621 107.564 24.3993C107.955 23.6366 108.505 23.0453 109.217 22.6258C109.929 22.2062 110.752 21.9965 111.689 21.9965C112.465 21.9965 113.18 22.1648 113.832 22.4955C114.483 22.8293 115.027 23.2964 115.465 23.9066C115.904 24.5138 116.199 25.2192 116.355 26.0203H114.407C114.289 25.5975 114.092 25.2192 113.816 24.8888C113.539 24.555 113.215 24.3008 112.843 24.1196C112.471 23.9416 112.087 23.8494 111.689 23.8494C111.136 23.8494 110.653 23.983 110.237 24.2499C109.82 24.5169 109.496 24.8918 109.268 25.3719C109.039 25.8549 108.924 26.4144 108.924 27.0533V30.7686C108.924 31.4012 109.039 31.9605 109.268 32.4437C109.496 32.93 109.82 33.3018 110.237 33.5657C110.653 33.8294 111.136 33.9628 111.689 33.9628C112.093 33.9628 112.478 33.8802 112.85 33.7118C113.218 33.5434 113.539 33.2954 113.816 32.9648C114.092 32.6375 114.289 32.2466 114.407 31.7921H116.355C116.199 32.5931 115.901 33.2986 115.459 33.9057C115.02 34.5159 114.474 34.9863 113.822 35.3169C113.171 35.6506 112.459 35.8159 111.689 35.8159ZM124.065 22.1364H125.683L130.676 35.676H128.626L124.872 24.752L121.122 35.676H119.072L124.065 22.1364ZM121.373 30.899H128.496V32.7043H121.373V30.899ZM144.148 22.1364H145.925V35.676H144.072V25.537L144.167 26.1314L140.833 33.7944H139.511L136.177 26.319L136.269 25.537V35.676H134.416V22.1364H136.196L140.172 31.0769L144.148 22.1364ZM154.474 22.1364H156.091L161.084 35.676H159.035L155.281 24.752L151.531 35.676H149.48L154.474 22.1364ZM151.782 30.899H158.904V32.7043H151.782V30.899ZM165.804 28.617H170.132C170.542 28.617 170.902 28.5216 171.213 28.3277C171.525 28.1369 171.763 27.8636 171.935 27.5108C172.106 27.1549 172.192 26.7481 172.192 26.2903C172.192 25.8231 172.106 25.4131 171.935 25.0603C171.763 24.7077 171.525 24.4312 171.213 24.2372C170.902 24.04 170.542 23.9447 170.132 23.9447H165.804V22.1364H170.069C170.876 22.1364 171.585 22.308 172.201 22.6544C172.815 22.9977 173.292 23.484 173.629 24.1101C173.969 24.7394 174.137 25.464 174.137 26.2903C174.137 27.1168 173.969 27.8413 173.629 28.4645C173.292 29.0874 172.815 29.5703 172.201 29.9137C171.585 30.2538 170.876 30.4254 170.069 30.4254H165.804V28.617ZM164.824 22.1364H166.725V35.676H164.824V22.1364ZM182.638 35.8159C181.701 35.8159 180.877 35.6092 180.166 35.193C179.454 34.7766 178.904 34.1853 178.513 33.4226C178.122 32.6597 177.925 31.7731 177.925 30.7686V27.0533C177.925 26.0488 178.122 25.1621 178.513 24.3993C178.904 23.6366 179.454 23.0453 180.166 22.6258C180.877 22.2062 181.701 21.9965 182.638 21.9965C183.414 21.9965 184.129 22.1648 184.78 22.4955C185.432 22.8293 185.976 23.2964 186.414 23.9066C186.853 24.5138 187.148 25.2192 187.304 26.0203H185.356C185.238 25.5975 185.041 25.2192 184.765 24.8888C184.488 24.555 184.164 24.3008 183.792 24.1196C183.42 23.9416 183.036 23.8494 182.638 23.8494C182.085 23.8494 181.602 23.983 181.186 24.2499C180.769 24.5169 180.445 24.8918 180.217 25.3719C179.988 25.8549 179.873 26.4144 179.873 27.0533V30.7686C179.873 31.4012 179.988 31.9605 180.217 32.4437C180.445 32.93 180.769 33.3018 181.186 33.5657C181.602 33.8294 182.085 33.9628 182.638 33.9628C183.042 33.9628 183.427 33.8802 183.798 33.7118C184.167 33.5434 184.488 33.2954 184.765 32.9648C185.041 32.6375 185.238 32.2466 185.356 31.7921H187.304C187.148 32.5931 186.85 33.2986 186.408 33.9057C185.969 34.5159 185.423 34.9863 184.771 35.3169C184.119 35.6506 183.408 35.8159 182.638 35.8159ZM195.001 28.2451L198.93 22.1364H201.313L195.961 29.9137L195.001 28.2451ZM194.992 29.7167L196.657 28.7378L201.882 35.676H199.248L194.992 29.7167ZM191.508 22.1364H193.409V35.676H191.508V22.1364ZM192.43 28.0513H196.667V29.8564H192.43V28.0513ZM209.128 22.1364H210.746L215.739 35.676H213.689L209.935 24.752L206.185 35.676H204.135L209.128 22.1364ZM206.436 30.899H213.559V32.7043H206.436V30.899ZM222.721 30.2283C221.946 30.2283 221.259 30.0599 220.668 29.7262C220.073 29.3892 219.613 28.9189 219.285 28.3056C218.955 27.6952 218.793 26.9865 218.793 26.1791C218.793 25.3719 218.955 24.6631 219.279 24.0498C219.606 23.4394 220.064 22.9659 220.658 22.6321C221.249 22.2952 221.939 22.1268 222.721 22.1268H227.171V23.9352H222.645C222.279 23.9352 221.958 24.0275 221.682 24.215C221.405 24.3993 221.192 24.6631 221.04 25C220.887 25.3401 220.811 25.731 220.811 26.1791C220.811 26.6241 220.887 27.0183 221.04 27.3551C221.192 27.6952 221.408 27.9558 221.688 28.1434C221.968 28.3277 222.286 28.4229 222.645 28.4229H227.171V30.2283H222.721ZM222.34 29.3829L224.228 29.8089L220.941 35.676H218.688L222.34 29.3829ZM226.1 22.1268H228V35.676H226.1V22.1268Z" fill="white"/>
<path d="M118.939 41.6319H120.807V54.9642H118.939V41.6319ZM107.806 53.1865H119.846V54.9642H107.806V53.1865ZM106.724 41.6319H108.595V54.9642H106.724V41.6319ZM112.833 41.6319H114.701V54.9642H112.833V41.6319ZM141.81 47.647L145.679 41.6319H148.026L142.755 49.2902L141.81 47.647ZM141.801 49.096L143.441 48.1321L148.586 54.9642H145.992L141.801 49.096ZM138.371 41.6319H140.242V54.9642H138.371V41.6319ZM139.278 47.4561H143.45V49.2339H139.278V47.4561ZM168.544 55.102C167.614 55.102 166.795 54.8986 166.084 54.4916C165.377 54.0848 164.829 53.5121 164.438 52.7672C164.05 52.0254 163.856 51.1648 163.856 50.1883V46.4109C163.856 45.4314 164.05 44.5706 164.438 43.829C164.829 43.0871 165.377 42.5114 166.084 42.1045C166.795 41.6976 167.614 41.4942 168.544 41.4942C169.47 41.4942 170.29 41.6976 171.001 42.1045C171.708 42.5114 172.259 43.0871 172.647 43.829C173.035 44.5706 173.229 45.4314 173.229 46.4109V50.1883C173.229 51.1648 173.035 52.0254 172.647 52.7672C172.259 53.5121 171.708 54.0848 171.001 54.4916C170.29 54.8986 169.47 55.102 168.544 55.102ZM168.544 53.2586C169.092 53.2586 169.577 53.1364 169.996 52.8862C170.415 52.639 170.738 52.2884 170.966 51.8345C171.198 51.3776 171.311 50.8519 171.311 50.2509V46.345C171.311 45.7473 171.198 45.2184 170.966 44.7647C170.738 44.3078 170.415 43.9572 169.996 43.71C169.577 43.4628 169.092 43.3376 168.544 43.3376C167.993 43.3376 167.508 43.4628 167.089 43.71C166.669 43.9572 166.347 44.3078 166.119 44.7647C165.887 45.2184 165.774 45.7473 165.774 46.345V50.2509C165.774 50.8519 165.887 51.3776 166.119 51.8345C166.347 52.2884 166.669 52.639 167.089 52.8862C167.508 53.1364 167.993 53.2586 168.544 53.2586ZM189.601 53.1865C190.136 53.1865 190.574 53.0615 190.906 52.8142C191.237 52.5668 191.484 52.182 191.644 51.6593C191.804 51.1366 191.882 50.4576 191.882 49.6189V41.6319H193.754V49.5093C193.754 50.7923 193.616 51.8345 193.34 52.6295C193.065 53.4276 192.636 54.0159 192.057 54.3946C191.475 54.7733 190.718 54.9642 189.782 54.9642H189.601V53.1865ZM198.448 41.6319H200.316V54.9642H198.448V41.6319ZM193.046 41.6319H199.437V43.4127H193.046V41.6319ZM221.329 41.6319H222.922L227.839 54.9642H225.82L222.124 44.2077L218.431 54.9642H216.412L221.329 41.6319ZM218.678 50.2604H225.692V52.0379H218.678V50.2604Z" fill="white"/>
<path d="M110.355 60.608H111.948L116.865 73.9402H114.846L111.15 63.1837L107.457 73.9402H105.438L110.355 60.608ZM107.704 69.2365H114.718V71.014H107.704V69.2365ZM123.635 74.0781C122.712 74.0781 121.901 73.8746 121.2 73.4644C120.499 73.0545 119.958 72.4724 119.573 71.7214C119.188 70.9702 118.994 70.0971 118.994 69.108V65.4496C118.994 64.4605 119.188 63.5874 119.573 62.8362C119.958 62.0852 120.499 61.5031 121.2 61.0899C121.901 60.6769 122.712 60.4702 123.635 60.4702C124.398 60.4702 125.103 60.6362 125.744 60.9616C126.386 61.2903 126.921 61.7503 127.353 62.3511C127.785 62.9488 128.076 63.6437 128.229 64.4324H126.311C126.195 64.0162 126.001 63.6437 125.729 63.3183C125.456 62.9896 125.137 62.7393 124.771 62.5608C124.405 62.3855 124.026 62.2948 123.635 62.2948C123.09 62.2948 122.615 62.4263 122.205 62.6891C121.795 62.9521 121.475 63.3213 121.25 63.7938C121.025 64.2696 120.912 64.8204 120.912 65.4496V69.108C120.912 69.7309 121.025 70.2817 121.25 70.7575C121.475 71.2363 121.795 71.6025 122.205 71.8622C122.615 72.122 123.09 72.2534 123.635 72.2534C124.032 72.2534 124.411 72.1721 124.777 72.0061C125.14 71.8403 125.456 71.5962 125.729 71.2707C126.001 70.9484 126.195 70.5634 126.311 70.1159H128.229C128.076 70.9045 127.782 71.5992 127.347 72.197C126.915 72.798 126.376 73.2612 125.735 73.5867C125.093 73.9151 124.392 74.0781 123.635 74.0781ZM133.579 61.7002H135.447V73.9402H133.579V61.7002ZM129.807 60.608H139.215V62.3887H129.807V60.608ZM142.768 66.9892H147.031C147.434 66.9892 147.788 66.8954 148.095 66.7045C148.402 66.5167 148.636 66.2476 148.805 65.9002C148.974 65.5497 149.059 65.1491 149.059 64.6985C149.059 64.2385 148.974 63.8346 148.805 63.4873C148.636 63.1398 148.402 62.8676 148.095 62.6767C147.788 62.4826 147.434 62.3887 147.031 62.3887H142.768V60.608H146.968C147.763 60.608 148.461 60.777 149.068 61.118C149.672 61.4561 150.141 61.9349 150.473 62.5515C150.808 63.1712 150.974 63.8846 150.974 64.6985C150.974 65.5122 150.808 66.2257 150.473 66.839C150.141 67.4525 149.672 67.9283 149.068 68.2663C148.461 68.601 147.763 68.77 146.968 68.77H142.768V66.9892ZM141.804 60.608H143.676V73.9402H141.804V60.608ZM158.48 74.0781C157.55 74.0781 156.73 73.8747 156.02 73.4677C155.312 73.0608 154.765 72.4882 154.374 71.7433C153.986 71.0014 153.791 70.1408 153.791 69.1643V65.387C153.791 64.4075 153.986 63.5467 154.374 62.805C154.765 62.0631 155.312 61.4875 156.02 61.0806C156.73 60.6736 157.55 60.4702 158.48 60.4702C159.406 60.4702 160.226 60.6736 160.936 61.0806C161.644 61.4875 162.194 62.0631 162.583 62.805C162.971 63.5467 163.165 64.4075 163.165 65.387V69.1643C163.165 70.1408 162.971 71.0014 162.583 71.7433C162.194 72.4882 161.644 73.0608 160.936 73.4677C160.226 73.8747 159.406 74.0781 158.48 74.0781ZM158.48 72.2346C159.027 72.2346 159.512 72.1125 159.932 71.8622C160.351 71.615 160.673 71.2644 160.902 70.8105C161.133 70.3536 161.246 69.828 161.246 69.227V65.3212C161.246 64.7233 161.133 64.1945 160.902 63.7408C160.673 63.2838 160.351 62.9332 159.932 62.686C159.512 62.4388 159.027 62.3136 158.48 62.3136C157.929 62.3136 157.444 62.4388 157.024 62.686C156.605 62.9332 156.283 63.2838 156.054 63.7408C155.823 64.1945 155.71 64.7233 155.71 65.3212V69.227C155.71 69.828 155.823 70.3536 156.054 70.8105C156.283 71.2644 156.605 71.615 157.024 71.8622C157.444 72.1125 157.929 72.2346 158.48 72.2346ZM166.029 72.1626C166.564 72.1626 167.002 72.0375 167.334 71.7903C167.666 71.5429 167.913 71.1581 168.073 70.6353C168.232 70.1127 168.311 69.4337 168.311 68.5949V60.608H170.182V68.4853C170.182 69.7684 170.044 70.8106 169.769 71.6055C169.494 72.4037 169.065 72.9919 168.486 73.3706C167.904 73.7494 167.146 73.9402 166.211 73.9402H166.029V72.1626ZM174.877 60.608H176.745V73.9402H174.877V60.608ZM169.475 60.608H175.866V62.3887H169.475V60.608ZM185.214 74.0781C184.285 74.0781 183.465 73.8747 182.755 73.4677C182.047 73.0608 181.5 72.4882 181.108 71.7433C180.72 71.0014 180.526 70.1408 180.526 69.1643V65.387C180.526 64.4075 180.72 63.5467 181.108 62.805C181.5 62.0631 182.047 61.4875 182.755 61.0806C183.465 60.6736 184.285 60.4702 185.214 60.4702C186.141 60.4702 186.961 60.6736 187.671 61.0806C188.379 61.4875 188.929 62.0631 189.318 62.805C189.706 63.5467 189.9 64.4075 189.9 65.387V69.1643C189.9 70.1408 189.706 71.0014 189.318 71.7433C188.929 72.4882 188.379 73.0608 187.671 73.4677C186.961 73.8747 186.141 74.0781 185.214 74.0781ZM185.214 72.2346C185.762 72.2346 186.247 72.1125 186.667 71.8622C187.086 71.615 187.408 71.2644 187.637 70.8105C187.868 70.3536 187.981 69.828 187.981 69.227V65.3212C187.981 64.7233 187.868 64.1945 187.637 63.7408C187.408 63.2838 187.086 62.9332 186.667 62.686C186.247 62.4388 185.762 62.3136 185.214 62.3136C184.664 62.3136 184.179 62.4388 183.759 62.686C183.34 62.9332 183.018 63.2838 182.789 63.7408C182.558 64.1945 182.445 64.7233 182.445 65.3212V69.227C182.445 69.828 182.558 70.3536 182.789 70.8105C183.018 71.2644 183.34 71.615 183.759 71.8622C184.179 72.1125 184.664 72.2346 185.214 72.2346ZM193.493 60.608H195.365V73.9402H193.493V60.608ZM194.41 60.608H200.967V62.3887H194.41V60.608ZM211.918 73.9309V63.4496L212.137 63.6907L205.455 73.9309H203.922V60.608H205.775V71.2456L205.555 71.0046L212.256 60.608H213.771V73.9309H211.918ZM225.821 73.9309V63.4496L226.04 63.6907L219.358 73.9309H217.824V60.608H219.677V71.2456L219.458 71.0046L226.159 60.608H227.674V73.9309H225.821Z" fill="white"/>
<path fill-rule="evenodd" clip-rule="evenodd" d="M34.5542 1.28229L35.4445 36.2858L1.1272 29.3307L29.0492 50.4589L2.21488 72.9529L36.1426 64.2958L36.9983 99.3004L51.3835 67.377L79.2847 88.5332L63.2949 57.3823L97.2317 48.7591L62.9075 41.8381L77.3248 9.92875L50.5131 32.4491L34.5542 1.28229Z" stroke="white" stroke-width="1.00716" stroke-miterlimit="22.9256" stroke-linecap="round" stroke-linejoin="round"/>
<path fill-rule="evenodd" clip-rule="evenodd" d="M78.0983 34.011L59.398 49.6673L78.8378 64.3957L54.9377 59.5368L55.5431 83.9185L44.4406 62.2031L25.7557 77.8782L35.811 55.6585L11.906 50.8234L35.5475 44.8312L24.4231 23.1268L43.8482 37.8744L53.8815 15.6445L54.4626 40.0266L78.0983 34.011Z" stroke="white" stroke-width="1.00716" stroke-miterlimit="22.9256" stroke-linecap="round" stroke-linejoin="round"/>
<path fill-rule="evenodd" clip-rule="evenodd" d="M62.8841 41.954L53.3784 49.9125L63.26 57.3992L51.1111 54.9293L51.4189 67.323L45.7752 56.2847L36.2774 64.2526L41.3887 52.9579L29.2373 50.5001L41.2547 47.4542L35.5999 36.4214L45.4741 43.9179L50.5742 32.618L50.8696 45.0119L62.8841 41.954Z" stroke="white" stroke-width="1.00716" stroke-miterlimit="22.9256" stroke-linecap="round" stroke-linejoin="round"/>
<path fill-rule="evenodd" clip-rule="evenodd" d="M2.06559 72.896L79.3891 88.5746L77.4687 9.70057L1 29.1244L36.9521 99.3547L97.4212 48.6755L34.5575 1L2.06559 72.896Z" stroke="white" stroke-width="1.0069" stroke-miterlimit="22.9256" stroke-linecap="round" stroke-linejoin="round"/>
</svg>
