<svg width="0" height="0" class="hidden">
  <symbol fill="none" xmlns="http://www.w3.org/2000/svg" viewBox="0 0 30 30" id="phone">
    <path fill-rule="evenodd" clip-rule="evenodd" d="M15 30C23.2843 30 30 23.2843 30 15C30 6.71573 23.2843 0 15 0C6.71573 0 0 6.71573 0 15C0 23.2843 6.71573 30 15 30ZM7.89474 6H10.6459C11.4637 6 12.1992 6.4979 12.5029 7.25722L13.5572 9.89288C13.83 10.5749 13.7069 11.3517 13.2366 11.916L12.6693 12.5969C12.007 13.3916 12.06 14.56 12.7915 15.2915L14.7085 17.2085C15.44 17.94 16.6084 17.993 17.4031 17.3307L18.084 16.7634C18.6483 16.2931 19.4251 16.17 20.1071 16.4428L22.7428 17.4971C23.5021 17.8008 24 18.5363 24 19.3541V22.1053C24 23.1517 23.1517 24 22.1053 24C13.2106 24 6 16.7894 6 7.89474C6 6.8483 6.8483 6 7.89474 6Z" fill="white"></path>
  </symbol>
  <symbol fill="none" xmlns="http://www.w3.org/2000/svg" viewBox="0 0 30 30" id="phone-pink">
    <path fill-rule="evenodd" clip-rule="evenodd" d="M15 30C23.2843 30 30 23.2843 30 15C30 6.71573 23.2843 0 15 0C6.71573 0 0 6.71573 0 15C0 23.2843 6.71573 30 15 30ZM7.89474 6H10.6459C11.4637 6 12.1992 6.4979 12.5029 7.25722L13.5572 9.89288C13.83 10.5749 13.7069 11.3517 13.2366 11.916L12.6693 12.5969C12.007 13.3916 12.06 14.56 12.7915 15.2915L14.7085 17.2085C15.44 17.94 16.6084 17.993 17.4031 17.3307L18.084 16.7634C18.6483 16.2931 19.4251 16.17 20.1071 16.4428L22.7428 17.4971C23.5021 17.8008 24 18.5363 24 19.3541V22.1053C24 23.1517 23.1517 24 22.1053 24C13.2106 24 6 16.7894 6 7.89474C6 6.8483 6.8483 6 7.89474 6Z" fill="#E79CA0"></path>
  </symbol>
</svg>